<?xml version="1.0" encoding="UTF-8"?>
<svg id="Capa_1" xmlns="http://www.w3.org/2000/svg" version="1.1" viewBox="0 0 1280 720">
  <!-- Generator: Adobe Illustrator 30.2.1, SVG Export Plug-In . SVG Version: 2.1.1 Build 1)  -->
  <defs>
    <style>
      .st0 {
        font-family: PlayfairDisplay-Bold, 'Playfair Display';
        font-size: 200px;
        font-weight: 700;
      }
    </style>
  </defs>
  <path d="M405.68,308.05c-8.51-1.86-21.3,2.46-27.92,2.96-37.84,2.85-53.97-26.73-33.36-52.95,4.61-5.92,23.11-11.84,28.86,5.15.53,1.57-7.28-3.82-12.32,6.24-13.71,27.35,46.3,18.12,34.89-4.98-15.21-30.78-49-38.68-64.14-71.36-2.6-5.61-8.21-8.95-8.04-5.7.65,12.57-4.97,41.09-6.4,54.61-6.36,40.92,13.53,89.93,51.85,108.82,15.28,7.53,52.49,13.44,57.65-9.08,2.84-12.39-5.72-30.36-21.06-33.71Z"/>
  <path d="M365.35,192.23c-4.24-.34-20.64-6.84-23.67-10.05-6.4-6.78-13.41-24.87-11.27-34.27,6.32,5.86,16.76,6.29,24.17,11.32,10.58,7.17,13.16,20.13,13.02,32.24-.07.74-.52.9-2.26.76Z"/>
  <path d="M441.96,232.05c-28.57-21.2-51.68-17.13-93.23-34.92-20.2-7.14,37.72,31.94,46.18,41.62,25.51,23.18,40.29,65.66,46.12,98.9.4,2.27.85,4.35,2.88,2.83,35.44-27.94,30.3-80.15-1.96-108.43ZM455.33,291.96c-3.27,1.23-4.87-3.22-4.52-4.28.94-2.83,4.29-3.37,5.05-2.82,2.94,2.14,3.25,5.68-.52,7.1Z"/>
  <text class="st0" transform="translate(497.8 325.03)"><tspan x="0" y="0">Silvia</tspan></text>
  <text class="st0" transform="translate(265.41 512.6)"><tspan x="0" y="0">Losinno</tspan></text>
</svg>