<?xml version="1.0" encoding="UTF-8"?>
<svg id="Capa_1" xmlns="http://www.w3.org/2000/svg" version="1.1" viewBox="0 0 1080 1080">
  <!-- Generator: Adobe Illustrator 30.2.1, SVG Export Plug-In . SVG Version: 2.1.1 Build 1)  -->
  <path d="M692.76,812.2c-37.85-8.25-94.72,10.93-124.18,13.15-168.29,12.7-240.02-118.87-148.36-235.48,20.48-26.32,102.79-52.67,128.35,22.9,2.37,7-32.39-16.98-54.79,27.73-60.95,121.63,205.92,80.57,155.18-22.13-67.63-136.88-217.91-172.01-285.25-317.38-11.56-24.95-36.5-39.8-35.76-25.35,2.87,55.92-22.09,182.72-28.48,242.86-28.3,181.97,60.19,399.96,230.57,483.95,67.95,33.5,233.45,59.77,256.38-40.36,12.62-55.12-25.43-135.03-93.67-149.9Z"/>
  <path d="M513.39,297.1c-18.87-1.51-91.79-30.43-105.25-44.68-28.45-30.14-59.65-110.6-50.11-152.43,28.1,26.05,74.53,27.98,107.48,50.34,47.04,31.91,58.52,89.54,57.91,143.38-.32,3.31-2.3,4.01-10.03,3.4Z"/>
  <path d="M854.12,474.17c-127.07-94.27-229.85-76.18-414.62-155.32-89.84-31.76,167.73,142.06,205.4,185.12,113.46,103.08,179.2,292.02,205.11,439.84,1.78,10.07,3.8,19.36,12.81,12.58,157.6-124.26,134.76-356.46-8.7-482.22ZM913.6,740.61c-14.53,5.46-21.68-14.33-20.11-19.03,4.19-12.6,19.07-14.99,22.45-12.54,13.06,9.5,14.45,25.26-2.33,31.57Z"/>
</svg>
